<?xml version="1.0" encoding="UTF-8" standalone="no"?>
<!DOCTYPE svg PUBLIC "-//W3C//DTD SVG 1.1//EN" "http://www.w3.org/Graphics/SVG/1.1/DTD/svg11.dtd">
<svg width="100%" height="100%" viewBox="0 0 800 1200" version="1.1" xmlns="http://www.w3.org/2000/svg" xmlns:xlink="http://www.w3.org/1999/xlink" xml:space="preserve" xmlns:serif="http://www.serif.com/" style="fill-rule:evenodd;clip-rule:evenodd;stroke-linejoin:round;stroke-miterlimit:2;">
    <g transform="matrix(0.25075,4.81032,-6.32948,0.32994,6271.36,-2381.44)">
        <path d="M644.533,936.288C644.081,937.908 643.229,939.3 642.844,941.358C642.144,945.093 641.881,948.882 641.491,952.85C641.315,954.64 640.527,956.421 640.308,958.258C640.051,960.416 640.627,962.624 640.477,964.848C640.396,966.064 639.695,967.184 639.463,968.397C638.602,972.898 638.712,977.765 638.111,982.423C637.507,987.107 637.124,991.959 638.28,996.28C631.35,997.658 622.139,998.078 613.945,997.464C612.304,997.341 610.827,996.734 609.383,996.618C607.714,996.483 606.03,996.788 604.313,996.618C602.764,996.466 601.188,996.08 599.581,995.942C596.239,995.658 592.791,995.697 589.441,995.436C582.622,994.902 575.899,995.645 569.5,994.929C568.623,994.831 567.826,994.505 566.965,994.422C563.674,994.102 560.253,994.571 556.826,994.422C549.564,994.103 542.717,994.061 535.702,993.915C531.836,993.834 527.857,994.146 524.042,993.915C521.969,993.789 519.885,993.176 517.789,993.07C515.563,992.958 513.174,993.32 510.86,993.408C508.616,993.492 506.31,993.228 504.101,993.239C499.059,993.263 494.119,993.354 489.229,993.577C479.633,994.013 470.275,993.719 461.346,992.9C458.179,992.61 454.606,991.434 451.713,991.887C450.674,992.05 451.915,991.97 451.207,992.394C448.626,993.939 449.708,989.553 449.854,987.831C450.148,984.391 449.441,982.768 450.531,979.719C450.929,978.604 451.104,979.827 451.375,978.705C451.435,978.459 451.044,978.274 451.038,977.86C450.983,974.43 452.352,971.316 452.389,967.891C452.427,964.506 451.92,959.519 452.22,955.047C452.49,951.021 453.516,947.144 453.572,943.555C453.611,941.12 453.758,938.822 453.741,936.626C453.725,934.527 453.097,932.549 453.065,930.374C453.042,928.741 453.269,926.81 453.403,924.967C453.514,923.456 452.798,917.479 453.91,916.854C454.097,916.749 456.921,916.952 457.459,917.023C458.631,917.179 459.681,918.025 460.839,918.207C461.598,918.324 462.426,918.248 463.205,918.375C463.938,918.495 464.679,918.802 465.401,918.883C466.116,918.962 466.886,918.627 467.598,918.713C468.461,918.818 469.272,919.417 470.133,919.559C472.02,919.866 474.036,919.676 476.048,919.896C480.841,920.421 486.722,921.183 492.103,921.756C497.404,922.32 503.151,921.813 508.495,922.263C511.804,922.54 515.19,922.395 518.633,922.601C522.03,922.803 525.505,923.113 528.942,923.276C532.375,923.438 535.974,923.866 539.42,923.784C542.813,923.701 546.188,923.399 549.559,923.614C559.87,924.269 570.26,924.628 580.823,924.628C584.4,924.628 587.848,925.122 591.301,925.136C595.505,925.15 599.628,924.91 603.638,924.967C607.446,925.02 611.031,925.618 614.79,925.812C625.436,926.356 635.752,927.201 646.224,927.839C644.696,930.319 645.296,933.548 644.533,936.288ZM652.138,923.276C650.359,922.996 649.154,923.023 648.082,924.121C648.494,922.786 648.09,922.268 647.067,922.263C645.827,922.256 647.723,922.827 646.73,922.938C640.018,923.588 633.748,922.427 628.141,921.417L628.114,921.35C628.515,921.392 628.917,921.428 629.319,921.466C630.172,921.543 631.055,921.623 631.907,921.748C631.92,921.749 631.932,921.749 631.943,921.749C632.064,921.749 632.17,921.66 632.188,921.538C632.208,921.402 632.114,921.275 631.979,921.257C631.113,921.131 630.225,921.05 629.364,920.972C628.92,920.932 628.476,920.891 628.034,920.845C627.985,920.84 627.938,920.85 627.897,920.871C620.615,920.147 613.076,919.84 605.496,919.221C599.658,918.743 594.053,919.479 588.428,919.051C585.401,918.821 582.429,919.143 579.471,919.051C568.989,918.729 557.76,917.926 547.532,918.375C544.919,918.49 542.171,918.783 539.589,918.713C536.039,918.617 532.085,917.64 528.604,918.038C527.275,918.189 526.16,918.847 524.718,918.883C521.643,918.957 518.292,918.207 514.916,918.207C509.261,918.207 503.512,917.847 498.017,917.868C496.59,917.873 495.121,918.311 493.792,918.207C491.836,918.053 489.844,917.478 487.877,917.192C484.572,916.712 481.205,916.966 478.245,916.517C477.277,916.37 476.512,915.83 475.541,915.841C474.585,915.851 473.624,916.37 472.668,916.348C471.79,916.326 470.837,915.895 469.965,915.841C469.039,915.782 468.139,916.062 467.261,916.01C466.147,915.943 464.988,915.354 463.712,915.164C460.243,914.648 457.354,913.718 453.91,914.319C453.703,913.345 452.646,911.696 451.713,911.953C451.758,911.941 450.352,913.91 450.023,914.826C449.034,917.589 449.665,919.631 449.685,922.263C449.707,925.064 448.808,928.086 449.009,931.05C449.109,932.509 449.615,933.864 449.685,935.273C449.993,941.437 449.231,945.666 448.84,951.328C448.401,957.693 449.658,965.243 448.502,971.101C448.34,971.924 447.763,972.65 447.657,973.466C447.547,974.327 448.14,975.404 448.165,976.677C448.192,978.124 447.532,979.113 447.319,980.395C446.957,982.583 447.252,984.979 447.15,987.155C447.08,988.669 446.469,990.402 446.474,991.718C446.479,992.689 447.214,994.086 446.982,994.929C446.79,995.624 445.119,996.253 445.629,997.125C444.875,996.591 444.765,996.9 444.616,997.464C444.297,998.665 447.536,999.679 448.84,999.154C449.523,998.878 448.523,998.598 449.516,998.478C450.581,998.349 452.242,998.898 453.741,999.154C455.166,999.396 456.791,999.691 458.135,999.83C465.218,1000.56 472.816,1001.1 480.104,1001.18C485.667,1001.24 491.986,1001.01 498.355,1001.01C507.913,1001.01 516.232,1001.75 524.38,1001.86C534.3,1001.98 545.023,1002.54 554.292,1002.87C558.806,1003.03 563.507,1002.06 567.473,1002.87C568.628,1003.11 568.989,1003.2 570.177,1003.21C570.803,1003.21 571.443,1003.37 572.036,1003.21C572.209,1003.64 571.566,1003.64 572.542,1003.72C573.264,1003.77 572.483,1003.4 573.219,1003.21C574.146,1002.96 575.95,1002.96 577.274,1003.04C580.093,1003.21 582.309,1003.34 584.372,1003.55C584.938,1003.6 585.696,1003.47 586.062,1003.55C586.46,1003.64 586.682,1004.04 587.076,1004.05C587.514,1004.08 588.137,1003.74 588.597,1003.72C589.112,1003.69 589.578,1004.04 589.949,1004.05C591.094,1004.09 592.311,1003.78 593.498,1003.89C599.079,1004.39 604.657,1005.13 609.89,1005.74C612.757,1006.08 615.645,1005.93 618.339,1006.25C620.537,1006.51 622.668,1006.21 624.93,1006.25C625.524,1006.26 626.016,1006.55 626.62,1006.59C627.456,1006.64 631.983,1005.78 632.027,1005.91C631.846,1005.37 636.759,1006.41 638.111,1006.08C638.27,1006.04 639.062,1005.3 639.801,1004.9C640.5,1004.52 641.392,1004.35 641.829,1004.05C642.062,1003.89 642.039,1003.3 642.336,1003.04C642.686,1002.73 643.274,1002.75 643.519,1002.53C645.264,1000.98 644.648,1000.18 644.871,998.14C644.954,997.381 645.342,996.771 645.378,996.112C645.538,993.189 643.927,990.312 643.688,987.323C643.509,985.086 643.911,982.89 644.195,981.071C644.829,976.998 644.978,972.469 645.716,968.229C645.967,966.787 645.845,965.379 646.054,964.003C646.262,962.633 647.104,961.23 647.236,959.778C647.381,958.198 646.866,956.597 646.898,955.047C646.961,952.116 647.91,949.621 648.251,947.272C648.805,943.452 649.104,939.773 649.434,936.457C649.589,934.886 651.214,933.856 651.462,932.401C651.62,931.465 651.172,930.432 651.293,929.36C651.516,927.375 652.441,925.373 652.138,923.276Z" style="fill:rgb(245,245,245);fill-rule:nonzero;"/>
    </g>
</svg>
